<svg width="10" height="21" viewBox="0 0 10 21" fill="none" xmlns="http://www.w3.org/2000/svg"><path d="M2.45736 3.92969C2.45736 4.44101 2.45736 6.72325 2.45736 6.72325H0.410706V10.1392H2.45736V20.2903H6.66162V10.1395H9.48288C9.48288 10.1395 9.7471 8.50158 9.87518 6.71066C9.50798 6.71066 6.67752 6.71066 6.67752 6.71066C6.67752 6.71066 6.67752 4.72335 6.67752 4.37501C6.67752 4.02592 7.13591 3.55635 7.58897 3.55635C8.04119 3.55635 8.99562 3.55635 9.87962 3.55635C9.87962 3.09126 9.87962 1.48427 9.87962 0.000122083C8.6995 0.000122083 7.35693 0.000122083 6.76512 0.000122083C2.35344 -0.000113789 2.45736 3.41926 2.45736 3.92969Z" fill="white"/></svg>
