<svg width="15" height="20" viewBox="0 0 15 20" fill="none" xmlns="http://www.w3.org/2000/svg">
<path d="M12.2004 14.7533H7.49129C6.83667 14.7533 6.28003 14.5243 5.82262 14.0641C5.3631 13.6036 5.13599 13.0469 5.13599 12.3893V10.7132H11.8461C12.4513 10.7132 12.9725 10.4959 13.4055 10.0639C13.8383 9.62837 14.0557 9.10777 14.0557 8.50193C14.0557 7.89397 13.8383 7.37401 13.4042 6.93993C12.9697 6.50691 12.4468 6.28977 11.8391 6.28977H5.13577V2.8269C5.13577 2.17165 4.90209 1.61076 4.43811 1.14339C3.97625 0.675175 3.41728 0.44043 2.76839 0.44043C2.10126 0.44043 1.53316 0.671782 1.07109 1.12961C0.607329 1.58892 0.375977 2.15469 0.375977 2.82902V12.3904C0.375977 14.357 1.07109 16.0371 2.46197 17.4316C3.8539 18.8288 5.53189 19.5254 7.49383 19.5254H12.2021C12.8557 19.5254 13.417 19.2907 13.8837 18.8227C14.3509 18.3568 14.5839 17.7944 14.5839 17.1398C14.5839 16.485 14.3509 15.9239 13.8837 15.4559C13.4168 14.9889 12.8548 14.7533 12.2004 14.7533Z" fill="white"/>
</svg>
