<svg width="23" height="24" viewBox="0 0 23 24" fill="none" xmlns="http://www.w3.org/2000/svg">
<path d="M0.280273 23.2258L1.84899 17.6542C0.840214 15.9405 0.309085 13.9906 0.309085 11.9875C0.309085 5.81993 5.32677 0.802246 11.4943 0.802246C17.6619 0.802246 22.6795 5.81993 22.6795 11.9875C22.6795 18.1551 17.6619 23.1728 11.4943 23.1728C9.57257 23.1728 7.69078 22.6808 6.02606 21.7468L0.280273 23.2258ZM6.31981 19.7118L6.66218 19.9209C8.11362 20.807 9.78458 21.2754 11.4943 21.2754C16.6157 21.2754 20.7821 17.1088 20.7821 11.9875C20.7821 6.86617 16.6157 2.69964 11.4943 2.69964C6.37301 2.69964 2.20648 6.86617 2.20648 11.9875C2.20648 13.772 2.71364 15.5048 3.67302 16.9988L3.90359 17.3578L3.00022 20.5664L6.31981 19.7118Z" fill="white"/>
<path d="M8.3529 6.7816L7.62712 6.74204C7.39915 6.7296 7.17554 6.80578 7.00323 6.95546C6.65137 7.26101 6.08875 7.85173 5.91595 8.62151C5.65826 9.76929 6.0565 11.1748 7.0872 12.5802C8.11791 13.9857 10.0387 16.2345 13.4352 17.1949C14.5298 17.5044 15.3907 17.2957 16.055 16.8708C16.5812 16.5343 16.9439 15.9941 17.0746 15.3834L17.1905 14.8421C17.2273 14.6701 17.1399 14.4955 16.9801 14.4219L14.5272 13.2913C14.368 13.2179 14.1792 13.2643 14.0721 13.4031L13.1091 14.6514C13.0364 14.7457 12.9118 14.7831 12.7994 14.7436C12.14 14.5119 9.93097 13.5867 8.71889 11.2519C8.66632 11.1507 8.6794 11.0278 8.75396 10.9414L9.67426 9.87674C9.76829 9.76802 9.79204 9.61518 9.73554 9.48306L8.6782 7.00936C8.62191 6.87767 8.49577 6.7894 8.3529 6.7816Z" fill="white"/>
</svg>
